<?xml version="1.0" encoding="utf-8"?>
<!-- Generator: Adobe Illustrator 26.0.0, SVG Export Plug-In . SVG Version: 6.00 Build 0)  -->
<svg version="1.1" id="Layer_1" xmlns="http://www.w3.org/2000/svg" xmlns:xlink="http://www.w3.org/1999/xlink" x="0px" y="0px"
	 viewBox="0 0 48 48" style="enable-background:new 0 0 48 48;" xml:space="preserve">
<style type="text/css">
	.st0{fill:#cccccc;}
	.st1{fill:#FFFFFF;}
</style>
<path class="st0" d="M43.06,23.67c0,9.94-8.06,18-18,18s-18-8.06-18-18c0-9.94,8.06-18,18-18S43.06,13.72,43.06,23.67z"/>
<g>
	<path class="st1" d="M26.12,22.73c-0.47,0-0.85,0.38-0.85,0.85c0,0.47,0.38,0.84,0.85,0.84c0.47,0,0.84-0.38,0.84-0.84
		C26.96,23.11,26.59,22.73,26.12,22.73z"/>
	<path class="st1" d="M30.75,22.8c-0.43,0-0.78,0.35-0.78,0.78c0,0.43,0.35,0.78,0.78,0.78c0.43,0,0.78-0.35,0.78-0.78
		C31.53,23.15,31.18,22.8,30.75,22.8z"/>
	<path class="st1" d="M31.49,16.11H18.27c-1.95,0-3.53,1.58-3.53,3.53v6.85c0,1.95,1.58,3.53,3.53,3.53h4.97l1.64,3.24l1.86-3.24
		h4.75c1.95,0,3.53-1.58,3.53-3.53v-6.85C35.01,17.68,33.43,16.11,31.49,16.11z M19.12,25.47c-0.36,0-0.7-0.1-0.98-0.27v0.24h-1.32
		v-5.37h1.32v1.77c0.29-0.17,0.62-0.27,0.98-0.27c1.07,0,1.94,0.87,1.94,1.94C21.06,24.6,20.19,25.47,19.12,25.47z M23.24,21.89
		v3.58h-1.27v-3.58c0-0.78-0.49-0.78-0.49-0.78v-1.04c1.16-0.02,1.56,0.75,1.69,1.3C23.24,21.64,23.24,21.85,23.24,21.89
		L23.24,21.89z M26.12,25.63c-1.13,0-2.05-0.92-2.05-2.05c0-1.13,0.92-2.05,2.05-2.05c1.13,0,2.05,0.92,2.05,2.05
		C28.17,24.71,27.25,25.63,26.12,25.63z M30.55,27.32v-1.04c0,0,1.15,0.13,1.15-0.52v-0.55c-0.28,0.17-0.61,0.26-0.96,0.26
		c-1.05,0-1.9-0.85-1.9-1.9c0-1.05,0.85-1.9,1.9-1.9c0.35,0,0.68,0.1,0.96,0.26v-0.17h1.23v3.99C32.94,25.77,33.2,27.32,30.55,27.32
		z"/>
	<path class="st1" d="M18.98,22.74c-0.44,0-0.79,0.35-0.79,0.79c0,0.44,0.35,0.79,0.79,0.79c0.44,0,0.79-0.35,0.79-0.79
		C19.77,23.09,19.41,22.74,18.98,22.74z"/>
</g>
</svg>
