<?xml version="1.0" encoding="utf-8"?>
<!-- Generator: Adobe Illustrator 26.0.0, SVG Export Plug-In . SVG Version: 6.00 Build 0)  -->
<svg version="1.1" id="Layer_1" xmlns="http://www.w3.org/2000/svg" xmlns:xlink="http://www.w3.org/1999/xlink" x="0px" y="0px"
	 viewBox="0 0 48 48" style="enable-background:new 0 0 48 48;" xml:space="preserve">
<style type="text/css">
	.st0{display:none;fill:#cccccc;}
	.st1{display:none;}
	.st2{display:inline;fill:#FFFFFF;}
	.st3{fill:#cccccc;}
	.st4{fill:#FFFFFF;}
</style>
<path class="st0" d="M43.06,23.67c0,9.94-8.06,18-18,18s-18-8.06-18-18c0-9.94,8.06-18,18-18S43.06,13.72,43.06,23.67z"/>
<g class="st1">
	<path class="st2" d="M26.12,22.73c-0.47,0-0.85,0.38-0.85,0.85c0,0.47,0.38,0.84,0.85,0.84c0.47,0,0.84-0.38,0.84-0.84
		C26.96,23.11,26.59,22.73,26.12,22.73z"/>
	<path class="st2" d="M30.75,22.8c-0.43,0-0.78,0.35-0.78,0.78c0,0.43,0.35,0.78,0.78,0.78c0.43,0,0.78-0.35,0.78-0.78
		C31.53,23.15,31.18,22.8,30.75,22.8z"/>
	<path class="st2" d="M31.49,16.11H18.27c-1.95,0-3.53,1.58-3.53,3.53v6.85c0,1.95,1.58,3.53,3.53,3.53h4.97l1.64,3.24l1.86-3.24
		h4.75c1.95,0,3.53-1.58,3.53-3.53v-6.85C35.01,17.68,33.43,16.11,31.49,16.11z M19.12,25.47c-0.36,0-0.7-0.1-0.98-0.27v0.24h-1.32
		v-5.37h1.32v1.77c0.29-0.17,0.62-0.27,0.98-0.27c1.07,0,1.94,0.87,1.94,1.94C21.06,24.6,20.19,25.47,19.12,25.47z M23.24,21.89
		v3.58h-1.27v-3.58c0-0.78-0.49-0.78-0.49-0.78v-1.04c1.16-0.02,1.56,0.75,1.69,1.3C23.24,21.64,23.24,21.85,23.24,21.89
		L23.24,21.89z M26.12,25.63c-1.13,0-2.05-0.92-2.05-2.05c0-1.13,0.92-2.05,2.05-2.05c1.13,0,2.05,0.92,2.05,2.05
		C28.17,24.71,27.25,25.63,26.12,25.63z M30.55,27.32v-1.04c0,0,1.15,0.13,1.15-0.52v-0.55c-0.28,0.17-0.61,0.26-0.96,0.26
		c-1.05,0-1.9-0.85-1.9-1.9c0-1.05,0.85-1.9,1.9-1.9c0.35,0,0.68,0.1,0.96,0.26v-0.17h1.23v3.99C32.94,25.77,33.2,27.32,30.55,27.32
		z"/>
	<path class="st2" d="M18.98,22.74c-0.44,0-0.79,0.35-0.79,0.79c0,0.44,0.35,0.79,0.79,0.79c0.44,0,0.79-0.35,0.79-0.79
		C19.77,23.09,19.41,22.74,18.98,22.74z"/>
</g>
<path class="st3" d="M42.1,24.01c0,9.94-8.06,18-18,18s-18-8.06-18-18c0-9.94,8.06-18,18-18S42.1,14.07,42.1,24.01z"/>
<g>
	<g>
		<path class="st4" d="M28.48,33.89h-8.76c-3.15,0-5.71-2.56-5.71-5.71v-8.51c0-3.15,2.56-5.71,5.71-5.71h8.76
			c3.15,0,5.71,2.56,5.71,5.71v8.51C34.19,31.33,31.63,33.89,28.48,33.89z M19.72,15.81c-2.13,0-3.86,1.73-3.86,3.86v8.51
			c0,2.13,1.73,3.86,3.86,3.86h8.76c2.13,0,3.86-1.73,3.86-3.86v-8.51c0-2.13-1.73-3.86-3.86-3.86H19.72z"/>
	</g>
	<g>
		<path class="st4" d="M24.1,29.15c-2.88,0-5.23-2.35-5.23-5.23c0-2.88,2.35-5.23,5.23-5.23c2.88,0,5.23,2.34,5.23,5.23
			C29.33,26.81,26.98,29.15,24.1,29.15z M24.1,20.54c-1.87,0-3.38,1.52-3.38,3.38c0,1.87,1.52,3.38,3.38,3.38
			c1.87,0,3.38-1.52,3.38-3.38C27.48,22.06,25.97,20.54,24.1,20.54z"/>
	</g>
	<g>
		<path class="st4" d="M30.74,18.59c0,0.68-0.55,1.23-1.23,1.23c-0.68,0-1.23-0.55-1.23-1.23c0-0.68,0.55-1.23,1.23-1.23
			C30.19,17.36,30.74,17.92,30.74,18.59z"/>
	</g>
</g>
</svg>
