<svg id="Layer_1" data-name="Layer 1" xmlns="http://www.w3.org/2000/svg" viewBox="0 0 191.93 42.19"><defs><style>.cls-1{fill:#6b92d6;}.cls-2{fill:#fff;}</style></defs><path class="cls-1" d="M58.77,61.06c-.43.36-1.45,1-4.87,1.07-1.42,0-10.77-.85-10.77-.85l-8,26.17a4.61,4.61,0,0,0-.22,1.19c0,2,.83,2.28,4.14,2.39l0,1.34H22.87V91.06c3.9-.16,6.71-1.11,7.42-3.55L37.66,61.3l-8.62,0s-3.7-.07-4.32-.06a.52.52,0,0,0-.52.27c-.13.49.54,3.54.21,4.48-.43,1.2-2.2,1.09-3,.62-1.15-.68-1-3.15-.39-4.22,1.35-2.46,6.72-3.23,8-3.47a43.49,43.49,0,0,1,7.05-.36c4.22.16,17.86,2,20.39,1.29.06,0,.16-.07.16-.1.05-.56-.09-2.17,1.63-2.17,1.15,0,1.32,1.07,1.32,1.6A2.53,2.53,0,0,1,58.77,61.06Z" transform="translate(-3.9 -51.55)"/><path class="cls-1" d="M62.18,77.8c0,8.24-5.31,15.94-11.82,15.94-3.85,0-6.23-2.71-6.23-7.37,0-8.52,5.58-16,12.14-16C59.91,70.37,62.18,73.3,62.18,77.8ZM56,71.51c-1.62,0-3.41,1.14-4.61,3.2a31.51,31.51,0,0,0-2.82,7.21,27.22,27.22,0,0,0-1.24,6.51c0,2.76,1.08,4.17,3.25,4.17A4.39,4.39,0,0,0,54,90.65a17,17,0,0,0,2.6-4.93C58.28,81.05,59,77.47,59,75.36,59,72.86,58,71.51,56,71.51Z" transform="translate(-3.9 -51.55)"/><path class="cls-1" d="M86.83,58.53c6.24,0,10.61,4.41,10.61,9,0,6.56-5.75,8.19-16.22,8.19-1.14,0-2.28-.06-3.53-.17L74.17,87.83A5.15,5.15,0,0,0,74,89c0,1.8.74,1.89,4.32,2l-.06,1.35H62.18V91c3.91-.16,6.62-.71,7.33-3.15l6.24-22c.11-.38,1.24-4.51,1.24-4.51s-2-.06-5.34-.22l-.12-2.64ZM78.18,74.17c1.25,0,2.17.16,2.88.16,7.26,0,10.7-2.33,10.7-7.39,0-3.77-1-5.74-5.26-5.74H82.17Z" transform="translate(-3.9 -51.55)"/><path class="cls-1" d="M103.22,80.94c3-6.94,5-10.57,7.75-10.57a2.2,2.2,0,0,1,2.39,2.17,1.54,1.54,0,0,1-1.63,1.63c-1.19,0-1.19-1-2.17-1-1.46,0-4.82,5.31-7.81,14.91L100.24,93H96.71l2.82-9.38c1.36-4.55,2.33-7.81,2.33-10,0-.86-.43-1.35-.92-1.35-1.14,0-2.17,1.84-3.9,5.26H95.9c2.11-4.77,4-7.16,6-7.16,1.68,0,2.44,1.08,2.44,3.42a26.62,26.62,0,0,1-1.31,7.1Z" transform="translate(-3.9 -51.55)"/><path class="cls-1" d="M114.46,88.43c0,2.39.87,3.63,2.66,3.63,2.06,0,5-2.11,6.62-6h1.19c-1.9,5-5.2,7.7-9.05,7.7-3.15,0-5-2.17-5-5.8a20.83,20.83,0,0,1,4.44-12c2.71-3.63,5.75-5.53,8.68-5.53,2.22,0,3.42,1.14,3.42,3.25,0,3.91-4.07,7-12.21,10.52A14,14,0,0,0,114.46,88.43Zm10.42-15.08a1.58,1.58,0,0,0-1.68-1.73c-2.44,0-5.26,3.63-7.6,11.11C121.84,79.86,124.88,76,124.88,73.35Z" transform="translate(-3.9 -51.55)"/><path class="cls-1" d="M144.33,73.48a1.29,1.29,0,0,1-1.31,1.3c-1.78,0-1.54-3.56-4.63-3.56-1.79,0-4,1.75-4,3.49,0,3.14,5.53,7.78,5.53,12.34,0,3.79-4.29,6.69-8.52,6.69-3.36,0-5.53-2-5.53-4,0-1.08.65-1.89,1.41-1.89.92,0,1.47.65,1.47,1.73,0,.49-.17.92-.17,1.25,0,1,1,1.73,2.88,1.73a4,4,0,0,0,4.17-4c0-3.58-4.12-7.75-4.12-12,0-3.47,3.85-6.64,7-6.64C141.26,70,144.33,72,144.33,73.48Z" transform="translate(-3.9 -51.55)"/><path class="cls-1" d="M160.5,73.43a1.29,1.29,0,0,1-1.3,1.31c-1.79,0-1.42-3.23-4.51-3.23-1.79,0-4.39,1.46-4.39,3.2,0,3.14,5.75,7.56,5.75,12.11,0,3.8-4.51,6.92-8.74,6.92-3.36,0-5.53-2-5.53-4,0-1.08.65-1.89,1.41-1.89.92,0,1.47.65,1.47,1.73,0,.49-.17.92-.17,1.25,0,1,1,1.73,2.88,1.73a4,4,0,0,0,4.17-4c0-3.58-4.12-7.75-4.12-12,0-3.47,4.23-6.35,7.37-6.35C157.56,70.26,160.5,71.92,160.5,73.43Z" transform="translate(-3.9 -51.55)"/><path class="cls-1" d="M177.71,77.8c0,8.24-5.32,15.94-11.82,15.94-3.85,0-6.24-2.71-6.24-7.37,0-8.52,5.58-16,12.15-16C175.43,70.37,177.71,73.3,177.71,77.8Zm-6.18-6.29a5.71,5.71,0,0,0-4.61,3.2,31.06,31.06,0,0,0-2.82,7.21,24.5,24.5,0,0,0-1,6.53c0,2.77.87,4.15,3,4.15,1.3,0,2.14-.9,3.22-2.2a14.87,14.87,0,0,0,2.8-4.68c1.68-4.67,2.44-8.25,2.44-10.36C174.56,72.86,173.48,71.51,171.53,71.51Z" transform="translate(-3.9 -51.55)"/><path class="cls-1" d="M178.31,76s3.63-6.91,7.7-9c2.9-1.5,8.5-2,9.62-1.58s-2.7,6.26-7.37,7.38A90.77,90.77,0,0,0,178.31,76Z" transform="translate(-3.9 -51.55)"/><path class="cls-1" d="M21.27,62.72s-9.46-.35-12.45-2.09S3.9,51.55,3.9,51.55A40.57,40.57,0,0,1,13.51,55C16.46,56.73,21.27,62.72,21.27,62.72Z" transform="translate(-3.9 -51.55)"/><path class="cls-2" d="M18,61s-2.84-1.8-4.64-3.13-7.7-5.09-7.7-5.09a59.56,59.56,0,0,0,6.66,5.12A61,61,0,0,0,18,61Z" transform="translate(-3.9 -51.55)"/><path class="cls-2" d="M180.29,74.43s3-3.35,5.09-4.41a35.08,35.08,0,0,1,4.43-1.38,11.79,11.79,0,0,0,3.14-2A8.6,8.6,0,0,1,190.31,69c-1.17.54-3.52,1-4.7,1.6a13.4,13.4,0,0,0-2.41,1.53C181.86,73.23,180.29,74.43,180.29,74.43Z" transform="translate(-3.9 -51.55)"/></svg>